<svg width="173" height="16" viewBox="0 0 173 16" fill="none" xmlns="http://www.w3.org/2000/svg">
<path d="M6.008 10.84C6.664 10.84 7.232 10.7493 7.712 10.568C8.19733 10.3867 8.54133 10.2107 8.744 10.04L9.344 11.216C9.104 11.4293 8.68533 11.6453 8.088 11.864C7.496 12.0827 6.784 12.192 5.952 12.192C5.17333 12.192 4.45067 12.0533 3.784 11.776C3.11733 11.4987 2.53333 11.112 2.032 10.616C1.536 10.12 1.14667 9.54133 0.864 8.88C0.586667 8.21867 0.448 7.504 0.448 6.736C0.448 5.968 0.586667 5.25067 0.864 4.584C1.14133 3.91733 1.528 3.336 2.024 2.84C2.52533 2.33867 3.10933 1.94933 3.776 1.672C4.448 1.38933 5.17333 1.248 5.952 1.248C6.784 1.248 7.496 1.35733 8.088 1.576C8.68533 1.79467 9.104 2.01067 9.344 2.224L8.744 3.4C8.54133 3.224 8.19733 3.048 7.712 2.872C7.232 2.69067 6.664 2.6 6.008 2.6C5.41067 2.6 4.864 2.70133 4.368 2.904C3.872 3.10667 3.44 3.39467 3.072 3.768C2.70933 4.136 2.42667 4.57067 2.224 5.072C2.02667 5.57333 1.928 6.12 1.928 6.712C1.928 7.30933 2.02667 7.86133 2.224 8.368C2.42667 8.86933 2.70933 9.30667 3.072 9.68C3.44 10.048 3.872 10.3333 4.368 10.536C4.864 10.7387 5.41067 10.84 6.008 10.84ZM13.9894 12.192C13.312 12.192 12.7094 12.04 12.1814 11.736C11.6587 11.432 11.248 11.0213 10.9494 10.504C10.6507 9.98133 10.5014 9.392 10.5014 8.736C10.5014 8.08 10.6507 7.488 10.9494 6.96C11.248 6.432 11.6587 6.01333 12.1814 5.704C12.7094 5.39467 13.312 5.24 13.9894 5.24C14.6614 5.24 15.256 5.39467 15.7734 5.704C16.296 6.01333 16.704 6.432 16.9974 6.96C17.2907 7.488 17.4374 8.08 17.4374 8.736C17.4374 9.392 17.2907 9.98133 16.9974 10.504C16.704 11.0213 16.296 11.432 15.7734 11.736C15.256 12.04 14.6614 12.192 13.9894 12.192ZM13.9894 11C14.416 11 14.7867 10.9013 15.1014 10.704C15.4214 10.5067 15.6694 10.2373 15.8454 9.896C16.0214 9.54933 16.1094 9.16 16.1094 8.728C16.1094 8.296 16.0214 7.90667 15.8454 7.56C15.6694 7.21333 15.4214 6.93867 15.1014 6.736C14.7867 6.53333 14.416 6.432 13.9894 6.432C13.5574 6.432 13.1814 6.53333 12.8614 6.736C12.5414 6.93867 12.2907 7.21333 12.1094 7.56C11.9334 7.90667 11.8454 8.296 11.8454 8.728C11.8454 9.16 11.9334 9.54933 12.1094 9.896C12.2907 10.2373 12.5414 10.5067 12.8614 10.704C13.1814 10.9013 13.5574 11 13.9894 11ZM20.3886 15.328H19.0046V5.432H20.4126V6.664C20.4606 6.49867 20.594 6.304 20.8126 6.08C21.0313 5.856 21.3246 5.66133 21.6926 5.496C22.066 5.32533 22.4926 5.24 22.9726 5.24C23.5806 5.24 24.1193 5.38667 24.5886 5.68C25.0633 5.968 25.434 6.37333 25.7006 6.896C25.9726 7.41333 26.1086 8.02133 26.1086 8.72C26.1086 9.41867 25.97 10.0293 25.6926 10.552C25.4153 11.0693 25.0366 11.472 24.5566 11.76C24.082 12.048 23.538 12.192 22.9246 12.192C22.4286 12.192 21.994 12.0987 21.6206 11.912C21.2526 11.7253 20.962 11.5147 20.7486 11.28C20.5406 11.0453 20.4206 10.8587 20.3886 10.72V15.328ZM24.7326 8.72C24.7326 8.24533 24.634 7.83467 24.4366 7.488C24.2446 7.14133 23.9886 6.872 23.6686 6.68C23.3486 6.488 23.002 6.392 22.6286 6.392C22.218 6.392 21.8446 6.49067 21.5086 6.688C21.1726 6.88 20.906 7.152 20.7086 7.504C20.5113 7.85067 20.4126 8.256 20.4126 8.72C20.4126 9.184 20.5113 9.592 20.7086 9.944C20.906 10.2907 21.1726 10.56 21.5086 10.752C21.8446 10.944 22.218 11.04 22.6286 11.04C23.002 11.04 23.3486 10.9467 23.6686 10.76C23.9886 10.568 24.2446 10.2987 24.4366 9.952C24.634 9.60533 24.7326 9.19467 24.7326 8.72ZM30.2868 10.728L32.5028 5.432H33.8948L29.4628 15.328H28.0548L29.5428 12L26.8388 5.432H28.2548L30.2868 10.728ZM36.3174 12H34.9334V5.432H36.3174V6.568H36.2774C36.304 6.42933 36.4027 6.256 36.5734 6.048C36.744 5.84 36.9787 5.65333 37.2774 5.488C37.576 5.32267 37.9334 5.24 38.3494 5.24C38.6534 5.24 38.92 5.28267 39.1494 5.368C39.384 5.448 39.5494 5.528 39.6454 5.608L39.0774 6.76C39.0027 6.68533 38.872 6.61067 38.6854 6.536C38.4987 6.456 38.2667 6.416 37.9894 6.416C37.6374 6.416 37.336 6.52533 37.0854 6.744C36.8347 6.96267 36.6427 7.22667 36.5094 7.536C36.3814 7.84 36.3174 8.12267 36.3174 8.384V12ZM40.6951 12V5.432H42.0871V12H40.6951ZM41.4071 3.184C41.1565 3.184 40.9405 3.096 40.7591 2.92C40.5831 2.73867 40.4951 2.52267 40.4951 2.272C40.4951 2.02133 40.5831 1.80533 40.7591 1.624C40.9405 1.44267 41.1565 1.352 41.4071 1.352C41.5725 1.352 41.7245 1.39467 41.8631 1.48C42.0071 1.56533 42.1218 1.67733 42.2071 1.816C42.2925 1.94933 42.3351 2.10133 42.3351 2.272C42.3351 2.52267 42.2445 2.73867 42.0631 2.92C41.8818 3.096 41.6631 3.184 41.4071 3.184ZM47.351 15.512C46.8337 15.512 46.3643 15.4587 45.943 15.352C45.527 15.2453 45.1617 15.0933 44.847 14.896C44.5377 14.704 44.2897 14.4773 44.103 14.216L45.015 13.344C45.1163 13.4827 45.2523 13.6293 45.423 13.784C45.599 13.944 45.8363 14.08 46.135 14.192C46.4337 14.304 46.823 14.36 47.303 14.36C47.7723 14.36 48.1697 14.2587 48.495 14.056C48.8203 13.8587 49.0683 13.5893 49.239 13.248C49.4097 12.9067 49.495 12.5227 49.495 12.096V11.88H50.855V12.184C50.855 12.9093 50.6977 13.5173 50.383 14.008C50.0737 14.504 49.655 14.8773 49.127 15.128C48.599 15.384 48.007 15.512 47.351 15.512ZM49.495 12V10.72C49.4523 10.8533 49.327 11.0373 49.119 11.272C48.9163 11.5067 48.6363 11.72 48.279 11.912C47.927 12.0987 47.511 12.192 47.031 12.192C46.423 12.192 45.871 12.048 45.375 11.76C44.8843 11.472 44.4923 11.0693 44.199 10.552C43.911 10.0293 43.767 9.41867 43.767 8.72C43.767 8.02133 43.911 7.41333 44.199 6.896C44.4923 6.37333 44.8843 5.968 45.375 5.68C45.871 5.38667 46.423 5.24 47.031 5.24C47.5057 5.24 47.9163 5.32533 48.263 5.496C48.615 5.66667 48.895 5.864 49.103 6.088C49.3163 6.312 49.4417 6.504 49.479 6.664V5.432H50.855V12H49.495ZM45.143 8.72C45.143 9.19467 45.247 9.60533 45.455 9.952C45.663 10.2987 45.9323 10.568 46.263 10.76C46.599 10.9467 46.9563 11.04 47.335 11.04C47.7403 11.04 48.103 10.944 48.423 10.752C48.743 10.56 48.9963 10.2907 49.183 9.944C49.3697 9.592 49.463 9.184 49.463 8.72C49.463 8.256 49.3697 7.85067 49.183 7.504C48.9963 7.152 48.743 6.88 48.423 6.688C48.103 6.49067 47.7403 6.392 47.335 6.392C46.9563 6.392 46.599 6.488 46.263 6.68C45.9323 6.872 45.663 7.14133 45.455 7.488C45.247 7.83467 45.143 8.24533 45.143 8.72ZM56.4975 5.24C56.9295 5.24 57.3482 5.33067 57.7535 5.512C58.1642 5.69333 58.5002 5.98133 58.7615 6.376C59.0282 6.76533 59.1615 7.27467 59.1615 7.904V12H57.7535V8.176C57.7535 7.52533 57.6042 7.05333 57.3055 6.76C57.0122 6.46133 56.6255 6.312 56.1455 6.312C55.8255 6.312 55.5188 6.40267 55.2255 6.584C54.9322 6.76 54.6895 7.00533 54.4975 7.32C54.3108 7.62933 54.2175 7.98133 54.2175 8.376V12H52.8095V0.992H54.2175V6.6C54.2655 6.41867 54.3935 6.22133 54.6015 6.008C54.8148 5.79467 55.0868 5.61333 55.4175 5.464C55.7482 5.31467 56.1082 5.24 56.4975 5.24ZM60.4831 5.432H61.7711V2.736H63.1551V5.432H64.8431V6.624H63.1551V9.872C63.1551 10.256 63.2218 10.5387 63.3551 10.72C63.4938 10.9013 63.6778 10.992 63.9071 10.992C64.1098 10.992 64.2671 10.9547 64.3791 10.88C64.4911 10.8053 64.5578 10.7547 64.5791 10.728L65.1311 11.752C65.0991 11.7787 65.0138 11.8293 64.8751 11.904C64.7365 11.9787 64.5578 12.0453 64.3391 12.104C64.1205 12.1627 63.8645 12.192 63.5711 12.192C63.0591 12.192 62.6298 12.0373 62.2831 11.728C61.9418 11.4133 61.7711 10.9173 61.7711 10.24V6.624H60.4831V5.432ZM73.7804 2.456C73.3377 2.456 72.951 2.54667 72.6204 2.728C72.295 2.904 72.0204 3.112 71.7964 3.352C71.5777 3.58667 71.4097 3.80267 71.2924 4C71.1804 4.192 71.119 4.29867 71.1084 4.32L69.9004 3.792C69.911 3.744 69.9617 3.62933 70.0524 3.448C70.143 3.26133 70.2844 3.04533 70.4764 2.8C70.6684 2.55467 70.9137 2.31467 71.2124 2.08C71.511 1.84 71.871 1.64267 72.2924 1.488C72.719 1.328 73.215 1.248 73.7804 1.248C74.3564 1.248 74.855 1.328 75.2764 1.488C75.6977 1.648 76.0444 1.872 76.3164 2.16C76.5884 2.448 76.791 2.78933 76.9244 3.184C77.0577 3.57867 77.1244 4.008 77.1244 4.472C77.1244 4.92 77.0177 5.37867 76.8044 5.848C76.591 6.31733 76.3137 6.77867 75.9724 7.232C75.631 7.68 75.263 8.104 74.8684 8.504C74.479 8.89867 74.1004 9.256 73.7324 9.576C73.3697 9.896 73.055 10.16 72.7884 10.368C72.527 10.5707 72.3564 10.704 72.2764 10.768H77.0364V12H70.1404V10.872C70.3057 10.744 70.5537 10.5493 70.8844 10.288C71.2204 10.0213 71.599 9.70933 72.0204 9.352C72.4417 8.99467 72.8684 8.608 73.3004 8.192C73.7324 7.776 74.1324 7.352 74.5004 6.92C74.8684 6.48267 75.1644 6.056 75.3884 5.64C75.6177 5.21867 75.7324 4.824 75.7324 4.456C75.7324 3.72 75.5617 3.20267 75.2204 2.904C74.8844 2.60533 74.4044 2.456 73.7804 2.456ZM78.7311 6.728C78.7311 5.78933 78.8431 4.976 79.0671 4.288C79.2965 3.6 79.6005 3.032 79.9791 2.584C80.3631 2.13067 80.7898 1.79467 81.2591 1.576C81.7338 1.35733 82.2218 1.248 82.7231 1.248C83.2245 1.248 83.7125 1.35733 84.1871 1.576C84.6618 1.79467 85.0858 2.13067 85.4591 2.584C85.8378 3.032 86.1365 3.6 86.3551 4.288C86.5791 4.976 86.6911 5.78933 86.6911 6.728C86.6911 7.68267 86.5791 8.50667 86.3551 9.2C86.1365 9.888 85.8378 10.4533 85.4591 10.896C85.0858 11.3333 84.6618 11.6587 84.1871 11.872C83.7125 12.0853 83.2245 12.192 82.7231 12.192C82.2218 12.192 81.7338 12.0853 81.2591 11.872C80.7898 11.6587 80.3631 11.3333 79.9791 10.896C79.6005 10.4533 79.2965 9.888 79.0671 9.2C78.8431 8.50667 78.7311 7.68267 78.7311 6.728ZM80.1311 6.728C80.1311 7.672 80.2485 8.45867 80.4831 9.088C80.7178 9.712 81.0298 10.1787 81.4191 10.488C81.8138 10.7973 82.2485 10.952 82.7231 10.952C83.1978 10.952 83.6298 10.7973 84.0191 10.488C84.4085 10.1787 84.7205 9.712 84.9551 9.088C85.1898 8.45867 85.3071 7.672 85.3071 6.728C85.3071 5.79467 85.1898 5.016 84.9551 4.392C84.7205 3.76267 84.4085 3.288 84.0191 2.968C83.6298 2.648 83.1978 2.488 82.7231 2.488C82.2485 2.488 81.8138 2.648 81.4191 2.968C81.0298 3.288 80.7178 3.76267 80.4831 4.392C80.2485 5.016 80.1311 5.79467 80.1311 6.728ZM91.796 2.456C91.3533 2.456 90.9667 2.54667 90.636 2.728C90.3107 2.904 90.036 3.112 89.812 3.352C89.5933 3.58667 89.4253 3.80267 89.308 4C89.196 4.192 89.1347 4.29867 89.124 4.32L87.916 3.792C87.9267 3.744 87.9773 3.62933 88.068 3.448C88.1587 3.26133 88.3 3.04533 88.492 2.8C88.684 2.55467 88.9293 2.31467 89.228 2.08C89.5267 1.84 89.8867 1.64267 90.308 1.488C90.7347 1.328 91.2307 1.248 91.796 1.248C92.372 1.248 92.8707 1.328 93.292 1.488C93.7133 1.648 94.06 1.872 94.332 2.16C94.604 2.448 94.8067 2.78933 94.94 3.184C95.0733 3.57867 95.14 4.008 95.14 4.472C95.14 4.92 95.0333 5.37867 94.82 5.848C94.6067 6.31733 94.3293 6.77867 93.988 7.232C93.6467 7.68 93.2787 8.104 92.884 8.504C92.4947 8.89867 92.116 9.256 91.748 9.576C91.3853 9.896 91.0707 10.16 90.804 10.368C90.5427 10.5707 90.372 10.704 90.292 10.768H95.052V12H88.156V10.872C88.3213 10.744 88.5693 10.5493 88.9 10.288C89.236 10.0213 89.6147 9.70933 90.036 9.352C90.4573 8.99467 90.884 8.608 91.316 8.192C91.748 7.776 92.148 7.352 92.516 6.92C92.884 6.48267 93.18 6.056 93.404 5.64C93.6333 5.21867 93.748 4.824 93.748 4.456C93.748 3.72 93.5773 3.20267 93.236 2.904C92.9 2.60533 92.42 2.456 91.796 2.456ZM96.9628 3.12C96.9948 2.99733 97.0801 2.832 97.2188 2.624C97.3574 2.416 97.5548 2.208 97.8108 2C98.0721 1.78667 98.3948 1.608 98.7788 1.464C99.1681 1.32 99.6294 1.248 100.163 1.248C100.835 1.248 101.408 1.37333 101.883 1.624C102.363 1.86933 102.728 2.20533 102.979 2.632C103.235 3.05867 103.363 3.53867 103.363 4.072C103.363 4.48267 103.283 4.85333 103.123 5.184C102.963 5.51467 102.755 5.78667 102.499 6C102.248 6.208 101.981 6.336 101.699 6.384C101.997 6.41067 102.301 6.528 102.611 6.736C102.92 6.944 103.179 7.22933 103.387 7.592C103.595 7.95467 103.699 8.38933 103.699 8.896C103.699 9.52 103.547 10.0827 103.243 10.584C102.944 11.08 102.525 11.472 101.987 11.76C101.453 12.048 100.835 12.192 100.131 12.192C99.4374 12.192 98.8454 12.0747 98.3548 11.84C97.8694 11.6 97.4801 11.3093 97.1868 10.968C96.8934 10.6267 96.6934 10.296 96.5868 9.976L97.8428 9.328C97.9228 9.56267 98.0588 9.808 98.2508 10.064C98.4481 10.3147 98.7014 10.528 99.0108 10.704C99.3254 10.88 99.6934 10.968 100.115 10.968C100.584 10.968 100.981 10.8747 101.307 10.688C101.637 10.496 101.888 10.2427 102.059 9.928C102.229 9.608 102.315 9.25333 102.315 8.864C102.315 8.432 102.211 8.07733 102.003 7.8C101.8 7.52267 101.531 7.32 101.195 7.192C100.859 7.05867 100.499 6.992 100.115 6.992H99.9068V5.936H100.179C100.52 5.936 100.835 5.86667 101.123 5.728C101.416 5.58933 101.651 5.38667 101.827 5.12C102.008 4.85333 102.099 4.536 102.099 4.168C102.099 3.67733 101.936 3.26133 101.611 2.92C101.285 2.57867 100.795 2.408 100.139 2.408C99.7761 2.408 99.4668 2.46133 99.2108 2.568C98.9601 2.67467 98.7574 2.80533 98.6028 2.96C98.4481 3.10933 98.3308 3.25067 98.2508 3.384C98.1761 3.51733 98.1334 3.61333 98.1228 3.672L96.9628 3.12ZM113.708 8.792C113.708 9.496 113.599 10.1013 113.38 10.608C113.162 11.1147 112.834 11.5067 112.396 11.784C111.964 12.056 111.426 12.192 110.78 12.192C110.274 12.192 109.847 12.1227 109.5 11.984C109.154 11.8453 108.884 11.6933 108.692 11.528C108.5 11.3573 108.38 11.232 108.332 11.152L108.932 9.976C108.991 10.072 109.084 10.192 109.212 10.336C109.34 10.4747 109.519 10.5973 109.748 10.704C109.978 10.8107 110.266 10.864 110.612 10.864C111.023 10.864 111.354 10.7707 111.604 10.584C111.86 10.392 112.047 10.128 112.164 9.792C112.282 9.456 112.34 9.06667 112.34 8.624V1.44H113.708V8.792ZM115.583 1.44H116.951V10.76H121.103V12H115.583V1.44ZM125.911 12.192C125.234 12.192 124.631 12.04 124.103 11.736C123.581 11.432 123.17 11.0213 122.871 10.504C122.573 9.98133 122.423 9.392 122.423 8.736C122.423 8.08 122.573 7.488 122.871 6.96C123.17 6.432 123.581 6.01333 124.103 5.704C124.631 5.39467 125.234 5.24 125.911 5.24C126.583 5.24 127.178 5.39467 127.695 5.704C128.218 6.01333 128.626 6.432 128.919 6.96C129.213 7.488 129.359 8.08 129.359 8.736C129.359 9.392 129.213 9.98133 128.919 10.504C128.626 11.0213 128.218 11.432 127.695 11.736C127.178 12.04 126.583 12.192 125.911 12.192ZM125.911 11C126.338 11 126.709 10.9013 127.023 10.704C127.343 10.5067 127.591 10.2373 127.767 9.896C127.943 9.54933 128.031 9.16 128.031 8.728C128.031 8.296 127.943 7.90667 127.767 7.56C127.591 7.21333 127.343 6.93867 127.023 6.736C126.709 6.53333 126.338 6.432 125.911 6.432C125.479 6.432 125.103 6.53333 124.783 6.736C124.463 6.93867 124.213 7.21333 124.031 7.56C123.855 7.90667 123.767 8.296 123.767 8.728C123.767 9.16 123.855 9.54933 124.031 9.896C124.213 10.2373 124.463 10.5067 124.783 10.704C125.103 10.9013 125.479 11 125.911 11ZM133.999 11.04C134.415 11.04 134.751 10.9733 135.007 10.84C135.263 10.7067 135.423 10.6107 135.487 10.552L136.167 11.552C136.113 11.6 135.985 11.6773 135.783 11.784C135.585 11.8853 135.329 11.9787 135.015 12.064C134.705 12.1493 134.353 12.192 133.959 12.192C133.356 12.192 132.796 12.0587 132.279 11.792C131.761 11.52 131.343 11.1253 131.023 10.608C130.708 10.0907 130.551 9.45867 130.551 8.712C130.551 7.96 130.708 7.328 131.023 6.816C131.343 6.29867 131.761 5.90667 132.279 5.64C132.796 5.37333 133.356 5.24 133.959 5.24C134.348 5.24 134.695 5.288 134.999 5.384C135.303 5.47467 135.553 5.576 135.751 5.688C135.948 5.8 136.079 5.88533 136.143 5.944L135.455 6.944C135.412 6.90133 135.329 6.83733 135.207 6.752C135.089 6.66133 134.929 6.57867 134.727 6.504C134.524 6.42933 134.281 6.392 133.999 6.392C133.657 6.392 133.324 6.48533 132.999 6.672C132.679 6.85333 132.415 7.11733 132.207 7.464C131.999 7.81067 131.895 8.22667 131.895 8.712C131.895 9.19733 131.999 9.616 132.207 9.968C132.415 10.3147 132.679 10.5813 132.999 10.768C133.324 10.9493 133.657 11.04 133.999 11.04ZM142.823 12V10.72C142.78 10.8533 142.655 11.0373 142.447 11.272C142.244 11.5067 141.964 11.72 141.607 11.912C141.255 12.0987 140.839 12.192 140.359 12.192C139.751 12.192 139.199 12.048 138.703 11.76C138.212 11.472 137.82 11.0693 137.527 10.552C137.239 10.0293 137.095 9.41867 137.095 8.72C137.095 8.02133 137.239 7.41333 137.527 6.896C137.82 6.37333 138.212 5.968 138.703 5.68C139.199 5.38667 139.751 5.24 140.359 5.24C140.834 5.24 141.244 5.32533 141.591 5.496C141.943 5.66667 142.223 5.864 142.431 6.088C142.644 6.312 142.77 6.504 142.807 6.664V5.432H144.183V12H142.823ZM138.471 8.72C138.471 9.19467 138.575 9.60533 138.783 9.952C138.991 10.2987 139.26 10.568 139.591 10.76C139.927 10.9467 140.284 11.04 140.663 11.04C141.068 11.04 141.431 10.944 141.751 10.752C142.071 10.56 142.324 10.2907 142.511 9.944C142.698 9.592 142.791 9.184 142.791 8.72C142.791 8.256 142.698 7.85067 142.511 7.504C142.324 7.152 142.071 6.88 141.751 6.688C141.431 6.49067 141.068 6.392 140.663 6.392C140.284 6.392 139.927 6.488 139.591 6.68C139.26 6.872 138.991 7.14133 138.783 7.488C138.575 7.83467 138.471 8.24533 138.471 8.72ZM149.139 11.04C149.555 11.04 149.891 10.9733 150.147 10.84C150.403 10.7067 150.563 10.6107 150.627 10.552L151.307 11.552C151.254 11.6 151.126 11.6773 150.923 11.784C150.726 11.8853 150.47 11.9787 150.155 12.064C149.846 12.1493 149.494 12.192 149.099 12.192C148.496 12.192 147.936 12.0587 147.419 11.792C146.902 11.52 146.483 11.1253 146.163 10.608C145.848 10.0907 145.691 9.45867 145.691 8.712C145.691 7.96 145.848 7.328 146.163 6.816C146.483 6.29867 146.902 5.90667 147.419 5.64C147.936 5.37333 148.496 5.24 149.099 5.24C149.488 5.24 149.835 5.288 150.139 5.384C150.443 5.47467 150.694 5.576 150.891 5.688C151.088 5.8 151.219 5.88533 151.283 5.944L150.595 6.944C150.552 6.90133 150.47 6.83733 150.347 6.752C150.23 6.66133 150.07 6.57867 149.867 6.504C149.664 6.42933 149.422 6.392 149.139 6.392C148.798 6.392 148.464 6.48533 148.139 6.672C147.819 6.85333 147.555 7.11733 147.347 7.464C147.139 7.81067 147.035 8.22667 147.035 8.712C147.035 9.19733 147.139 9.616 147.347 9.968C147.555 10.3147 147.819 10.5813 148.139 10.768C148.464 10.9493 148.798 11.04 149.139 11.04ZM148.427 15.4C148.038 15.4 147.688 15.3387 147.379 15.216C147.075 15.0987 146.856 14.984 146.723 14.872L147.275 14.224C147.376 14.3147 147.523 14.4053 147.715 14.496C147.912 14.592 148.12 14.64 148.339 14.64C148.595 14.64 148.808 14.5813 148.979 14.464C149.155 14.352 149.243 14.2027 149.243 14.016C149.243 13.8133 149.168 13.664 149.019 13.568C148.875 13.472 148.691 13.424 148.467 13.424C148.302 13.424 148.152 13.4347 148.019 13.456C147.886 13.4827 147.79 13.5093 147.731 13.536L147.499 13.4L148.115 11.664L148.739 11.92L148.371 12.944C148.627 12.8907 148.896 12.888 149.179 12.936C149.462 12.9893 149.702 13.0987 149.899 13.264C150.096 13.4347 150.195 13.6667 150.195 13.96C150.195 14.2747 150.107 14.5387 149.931 14.752C149.76 14.9653 149.539 15.1253 149.267 15.232C149 15.344 148.72 15.4 148.427 15.4ZM155.599 12.192C154.921 12.192 154.319 12.04 153.791 11.736C153.268 11.432 152.857 11.0213 152.559 10.504C152.26 9.98133 152.111 9.392 152.111 8.736C152.111 8.08 152.26 7.488 152.559 6.96C152.857 6.432 153.268 6.01333 153.791 5.704C154.319 5.39467 154.921 5.24 155.599 5.24C156.271 5.24 156.865 5.39467 157.383 5.704C157.905 6.01333 158.313 6.432 158.607 6.96C158.9 7.488 159.047 8.08 159.047 8.736C159.047 9.392 158.9 9.98133 158.607 10.504C158.313 11.0213 157.905 11.432 157.383 11.736C156.865 12.04 156.271 12.192 155.599 12.192ZM155.599 11C156.025 11 156.396 10.9013 156.711 10.704C157.031 10.5067 157.279 10.2373 157.455 9.896C157.631 9.54933 157.719 9.16 157.719 8.728C157.719 8.296 157.631 7.90667 157.455 7.56C157.279 7.21333 157.031 6.93867 156.711 6.736C156.396 6.53333 156.025 6.432 155.599 6.432C155.167 6.432 154.791 6.53333 154.471 6.736C154.151 6.93867 153.9 7.21333 153.719 7.56C153.543 7.90667 153.455 8.296 153.455 8.728C153.455 9.16 153.543 9.54933 153.719 9.896C153.9 10.2373 154.151 10.5067 154.471 10.704C154.791 10.9013 155.167 11 155.599 11ZM152.879 3.856C152.932 3.616 153.023 3.368 153.151 3.112C153.284 2.856 153.455 2.63733 153.663 2.456C153.876 2.27467 154.124 2.184 154.407 2.184C154.732 2.184 155.007 2.23467 155.231 2.336C155.455 2.43733 155.665 2.53867 155.863 2.64C156.06 2.74133 156.279 2.792 156.519 2.792C156.705 2.792 156.855 2.72267 156.967 2.584C157.079 2.44533 157.151 2.312 157.183 2.184H158.191C158.137 2.424 158.041 2.67467 157.903 2.936C157.769 3.192 157.596 3.41067 157.383 3.592C157.175 3.768 156.929 3.856 156.647 3.856C156.321 3.856 156.044 3.80533 155.815 3.704C155.585 3.60267 155.375 3.504 155.183 3.408C154.991 3.30667 154.788 3.256 154.575 3.256C154.399 3.256 154.249 3.32533 154.127 3.464C154.009 3.59733 153.929 3.728 153.887 3.856H152.879ZM161.384 9C161.389 9.39467 161.475 9.75467 161.64 10.08C161.805 10.4053 162.051 10.664 162.376 10.856C162.707 11.048 163.112 11.144 163.592 11.144C163.997 11.144 164.341 11.0853 164.624 10.968C164.912 10.8453 165.147 10.7013 165.328 10.536C165.509 10.3653 165.64 10.2133 165.72 10.08L166.4 10.92C166.224 11.176 166.008 11.4 165.752 11.592C165.501 11.784 165.195 11.9307 164.832 12.032C164.469 12.1387 164.027 12.192 163.504 12.192C162.8 12.192 162.189 12.0427 161.672 11.744C161.16 11.44 160.765 11.0213 160.488 10.488C160.211 9.94933 160.072 9.33333 160.072 8.64C160.072 8 160.203 7.424 160.464 6.912C160.725 6.39467 161.104 5.98667 161.6 5.688C162.101 5.38933 162.704 5.24 163.408 5.24C164.053 5.24 164.613 5.376 165.088 5.648C165.568 5.91467 165.939 6.29333 166.2 6.784C166.467 7.27467 166.6 7.86133 166.6 8.544C166.6 8.58667 166.597 8.664 166.592 8.776C166.587 8.88267 166.581 8.95733 166.576 9H161.384ZM165.272 7.952C165.267 7.73333 165.203 7.49333 165.08 7.232C164.963 6.97067 164.771 6.74667 164.504 6.56C164.237 6.37333 163.877 6.28 163.424 6.28C162.955 6.28 162.576 6.37067 162.288 6.552C162.005 6.73333 161.797 6.95467 161.664 7.216C161.531 7.472 161.453 7.71733 161.432 7.952H165.272ZM170.601 5.24C170.942 5.24 171.26 5.27467 171.553 5.344C171.852 5.41333 172.108 5.496 172.321 5.592C172.54 5.688 172.694 5.77333 172.785 5.848L172.233 6.728C172.126 6.632 171.934 6.52533 171.657 6.408C171.38 6.28533 171.07 6.224 170.729 6.224C170.356 6.224 170.038 6.29867 169.777 6.448C169.516 6.592 169.385 6.80267 169.385 7.08C169.385 7.35733 169.518 7.57867 169.785 7.744C170.057 7.904 170.42 8.03733 170.873 8.144C171.236 8.22933 171.574 8.344 171.889 8.488C172.209 8.632 172.468 8.832 172.665 9.088C172.862 9.33867 172.961 9.67467 172.961 10.096C172.961 10.48 172.881 10.808 172.721 11.08C172.561 11.3467 172.345 11.5627 172.073 11.728C171.801 11.888 171.497 12.0053 171.161 12.08C170.825 12.1547 170.484 12.192 170.137 12.192C169.732 12.192 169.366 12.1493 169.041 12.064C168.716 11.984 168.441 11.888 168.217 11.776C167.998 11.6587 167.838 11.5573 167.737 11.472L168.289 10.48C168.428 10.6133 168.654 10.7547 168.969 10.904C169.289 11.0533 169.652 11.128 170.057 11.128C170.505 11.128 170.868 11.0347 171.145 10.848C171.422 10.656 171.561 10.408 171.561 10.104C171.561 9.87467 171.494 9.69067 171.361 9.552C171.228 9.41333 171.049 9.30133 170.825 9.216C170.601 9.13067 170.356 9.056 170.089 8.992C169.833 8.93333 169.582 8.856 169.337 8.76C169.097 8.664 168.876 8.54133 168.673 8.392C168.476 8.23733 168.318 8.05067 168.201 7.832C168.084 7.608 168.025 7.34667 168.025 7.048C168.025 6.66933 168.145 6.34667 168.385 6.08C168.625 5.808 168.94 5.6 169.329 5.456C169.718 5.312 170.142 5.24 170.601 5.24Z" fill="#505D59"/>
</svg>
