<svg width="181" height="41" viewBox="0 0 181 41" fill="none" xmlns="http://www.w3.org/2000/svg">
<path d="M17.1077 21.1308C17.1077 23.2077 16.7154 24.9923 15.9308 26.4846C15.1615 27.9615 14.0538 29.0923 12.6077 29.8769C11.1769 30.6615 9.48462 31.0538 7.53077 31.0538C6.11539 31.0538 4.88462 30.8692 3.83846 30.5C2.79231 30.1462 1.96154 29.7615 1.34615 29.3462C0.730769 28.9154 0.353846 28.5923 0.215385 28.3769L2.8 22.4C2.98462 22.6615 3.24615 22.9462 3.58462 23.2538C3.92308 23.5615 4.33846 23.8308 4.83077 24.0615C5.32308 24.2769 5.87692 24.3846 6.49231 24.3846C7.2 24.3846 7.83077 24.2385 8.38462 23.9462C8.93846 23.6538 9.37692 23.1692 9.7 22.4923C10.0385 21.8154 10.2077 20.9154 10.2077 19.7923V0.0384599H17.1077V21.1308Z" fill="#0FEA5A"/>
<path d="M20.8764 0.0384599H27.7764V24.4538H38.8303V30.5H20.8764V0.0384599ZM51.8334 31.0538C49.7565 31.0538 47.9103 30.6308 46.295 29.7846C44.695 28.9231 43.4334 27.7462 42.5103 26.2538C41.6026 24.7462 41.1488 23.0231 41.1488 21.0846C41.1488 19.1462 41.6026 17.4231 42.5103 15.9154C43.4334 14.3923 44.695 13.1923 46.295 12.3154C47.9103 11.4385 49.7565 11 51.8334 11C53.9103 11 55.7411 11.4385 57.3257 12.3154C58.9103 13.1923 60.1488 14.3923 61.0411 15.9154C61.9334 17.4231 62.3796 19.1462 62.3796 21.0846C62.3796 23.0231 61.9334 24.7462 61.0411 26.2538C60.1488 27.7462 58.9103 28.9231 57.3257 29.7846C55.7411 30.6308 53.9103 31.0538 51.8334 31.0538ZM51.8334 25.2846C52.6334 25.2846 53.3257 25.1077 53.9103 24.7538C54.495 24.4 54.9488 23.9 55.2719 23.2538C55.595 22.6077 55.7565 21.8769 55.7565 21.0615C55.7565 20.2308 55.595 19.4923 55.2719 18.8462C54.9488 18.2 54.495 17.6923 53.9103 17.3231C53.3257 16.9538 52.6334 16.7692 51.8334 16.7692C51.0334 16.7692 50.3334 16.9538 49.7334 17.3231C49.1488 17.6923 48.6873 18.2 48.3488 18.8462C48.0257 19.4923 47.8642 20.2308 47.8642 21.0615C47.8642 21.8769 48.0257 22.6077 48.3488 23.2538C48.6873 23.9 49.1488 24.4 49.7334 24.7538C50.3334 25.1077 51.0334 25.2846 51.8334 25.2846ZM73.9919 25.5385C74.8689 25.5385 75.5919 25.3923 76.1612 25.1C76.7304 24.7923 77.115 24.5462 77.315 24.3615L80.5227 29.1154C80.2766 29.3154 79.8535 29.5769 79.2535 29.9C78.6535 30.2077 77.8996 30.4769 76.9919 30.7077C76.0996 30.9385 75.0766 31.0538 73.9227 31.0538C71.7535 31.0538 69.8458 30.6462 68.1996 29.8308C66.5535 29 65.2689 27.8308 64.3458 26.3231C63.4381 24.8154 62.9843 23.0462 62.9843 21.0154C62.9843 18.9692 63.4381 17.2 64.3458 15.7077C65.2689 14.2154 66.5535 13.0615 68.1996 12.2462C69.8458 11.4154 71.7535 11 73.9227 11C75.0612 11 76.0766 11.1231 76.9689 11.3692C77.8766 11.6 78.6381 11.8692 79.2535 12.1769C79.8689 12.4692 80.2996 12.7231 80.5458 12.9385L77.2689 17.7385C77.1612 17.6308 76.9612 17.4769 76.6689 17.2769C76.3919 17.0769 76.0304 16.9 75.5843 16.7462C75.1381 16.5923 74.6073 16.5154 73.9919 16.5154C73.2381 16.5154 72.5304 16.7077 71.8689 17.0923C71.2227 17.4769 70.6996 18.0077 70.2996 18.6846C69.8996 19.3615 69.6996 20.1385 69.6996 21.0154C69.6996 21.8923 69.8996 22.6769 70.2996 23.3692C70.6996 24.0462 71.2227 24.5769 71.8689 24.9615C72.5304 25.3462 73.2381 25.5385 73.9919 25.5385ZM95.7665 30.5V27.4308C95.628 27.7385 95.2742 28.1846 94.7049 28.7692C94.1511 29.3538 93.4126 29.8846 92.4895 30.3615C91.5665 30.8231 90.4895 31.0538 89.2588 31.0538C87.4126 31.0538 85.7972 30.6077 84.4126 29.7154C83.028 28.8077 81.9511 27.6 81.1819 26.0923C80.4126 24.5692 80.028 22.8846 80.028 21.0385C80.028 19.1923 80.4126 17.5154 81.1819 16.0077C81.9511 14.4846 83.028 13.2692 84.4126 12.3615C85.7972 11.4538 87.4126 11 89.2588 11C90.4434 11 91.4819 11.1923 92.3742 11.5769C93.2665 11.9462 93.9895 12.3923 94.5434 12.9154C95.0972 13.4231 95.4819 13.8923 95.6972 14.3231V11.5538H102.666V30.5H95.7665ZM86.9049 21.0385C86.9049 21.9 87.1049 22.6769 87.5049 23.3692C87.9049 24.0462 88.4357 24.5769 89.0972 24.9615C89.7742 25.3462 90.5203 25.5385 91.3357 25.5385C92.1819 25.5385 92.928 25.3462 93.5742 24.9615C94.2203 24.5769 94.728 24.0462 95.0972 23.3692C95.4819 22.6769 95.6742 21.9 95.6742 21.0385C95.6742 20.1769 95.4819 19.4077 95.0972 18.7308C94.728 18.0385 94.2203 17.5 93.5742 17.1154C92.928 16.7154 92.1819 16.5154 91.3357 16.5154C90.5203 16.5154 89.7742 16.7154 89.0972 17.1154C88.4357 17.5 87.9049 18.0385 87.5049 18.7308C87.1049 19.4077 86.9049 20.1769 86.9049 21.0385ZM115.08 25.5385C115.957 25.5385 116.68 25.3923 117.249 25.1C117.818 24.7923 118.203 24.5462 118.403 24.3615L121.61 29.1154C121.364 29.3154 120.941 29.5769 120.341 29.9C119.741 30.2077 118.987 30.4769 118.08 30.7077C117.187 30.9385 116.164 31.0538 115.01 31.0538C112.841 31.0538 110.934 30.6462 109.287 29.8308C107.641 29 106.357 27.8308 105.434 26.3231C104.526 24.8154 104.072 23.0462 104.072 21.0154C104.072 18.9692 104.526 17.2 105.434 15.7077C106.357 14.2154 107.641 13.0615 109.287 12.2462C110.934 11.4154 112.841 11 115.01 11C116.149 11 117.164 11.1231 118.057 11.3692C118.964 11.6 119.726 11.8692 120.341 12.1769C120.957 12.4692 121.387 12.7231 121.634 12.9385L118.357 17.7385C118.249 17.6308 118.049 17.4769 117.757 17.2769C117.48 17.0769 117.118 16.9 116.672 16.7462C116.226 16.5923 115.695 16.5154 115.08 16.5154C114.326 16.5154 113.618 16.7077 112.957 17.0923C112.31 17.4769 111.787 18.0077 111.387 18.6846C110.987 19.3615 110.787 20.1385 110.787 21.0154C110.787 21.8923 110.987 22.6769 111.387 23.3692C111.787 24.0462 112.31 24.5769 112.957 24.9615C113.618 25.3462 114.326 25.5385 115.08 25.5385ZM112.495 40.4923C111.034 40.4923 109.795 40.2692 108.78 39.8231C107.78 39.3769 107.087 38.9462 106.703 38.5308L109.01 35.9231C109.287 36.2308 109.687 36.5462 110.21 36.8692C110.749 37.1923 111.318 37.3538 111.918 37.3538C112.472 37.3538 112.91 37.2231 113.234 36.9615C113.572 36.7 113.741 36.3538 113.741 35.9231C113.741 35.4 113.534 35.0154 113.118 34.7692C112.703 34.5231 112.21 34.4 111.641 34.4C111.164 34.4 110.757 34.4308 110.418 34.4923C110.095 34.5692 109.88 34.6462 109.772 34.7231L109.426 34.4462L111.203 29.5308L113.649 30.3615L112.818 32.4385C113.68 32.3769 114.495 32.4769 115.264 32.7385C116.034 33 116.657 33.4 117.134 33.9385C117.626 34.4769 117.872 35.1462 117.872 35.9462C117.872 36.9 117.626 37.7154 117.134 38.3923C116.641 39.0692 115.98 39.5846 115.149 39.9385C114.334 40.3077 113.449 40.4923 112.495 40.4923ZM130.989 31.0538C128.912 31.0538 127.066 30.6308 125.451 29.7846C123.851 28.9231 122.589 27.7462 121.666 26.2538C120.758 24.7462 120.304 23.0231 120.304 21.0846C120.304 19.1462 120.758 17.4231 121.666 15.9154C122.589 14.3923 123.851 13.1923 125.451 12.3154C127.066 11.4385 128.912 11 130.989 11C133.066 11 134.897 11.4385 136.481 12.3154C138.066 13.1923 139.304 14.3923 140.197 15.9154C141.089 17.4231 141.535 19.1462 141.535 21.0846C141.535 23.0231 141.089 24.7462 140.197 26.2538C139.304 27.7462 138.066 28.9231 136.481 29.7846C134.897 30.6308 133.066 31.0538 130.989 31.0538ZM130.989 25.2846C131.789 25.2846 132.481 25.1077 133.066 24.7538C133.651 24.4 134.104 23.9 134.428 23.2538C134.751 22.6077 134.912 21.8769 134.912 21.0615C134.912 20.2308 134.751 19.4923 134.428 18.8462C134.104 18.2 133.651 17.6923 133.066 17.3231C132.481 16.9538 131.789 16.7692 130.989 16.7692C130.189 16.7692 129.489 16.9538 128.889 17.3231C128.304 17.6923 127.843 18.2 127.504 18.8462C127.181 19.4923 127.02 20.2308 127.02 21.0615C127.02 21.8769 127.181 22.6077 127.504 23.2538C127.843 23.9 128.304 24.4 128.889 24.7538C129.489 25.1077 130.189 25.2846 130.989 25.2846ZM122.197 7.76923C122.351 6.86154 122.635 5.92308 123.051 4.95385C123.466 3.98461 124.02 3.16154 124.712 2.48461C125.42 1.80769 126.258 1.46923 127.228 1.46923C128.197 1.46923 129.051 1.61538 129.789 1.90769C130.528 2.18461 131.22 2.46154 131.866 2.73846C132.512 3.01538 133.174 3.15384 133.851 3.15384C134.297 3.15384 134.658 2.96154 134.935 2.57692C135.228 2.19231 135.428 1.82308 135.535 1.46923H139.251C139.112 2.36154 138.828 3.3 138.397 4.28461C137.981 5.25384 137.428 6.07692 136.735 6.75384C136.043 7.43077 135.204 7.76923 134.22 7.76923C133.266 7.76923 132.42 7.63077 131.681 7.35385C130.943 7.06154 130.243 6.77692 129.581 6.5C128.935 6.20769 128.274 6.06154 127.597 6.06154C127.166 6.06154 126.804 6.25385 126.512 6.63846C126.235 7.02308 126.043 7.4 125.935 7.76923H122.197ZM148.012 22.5154C148.058 23.1923 148.274 23.7923 148.658 24.3154C149.043 24.8385 149.574 25.2538 150.251 25.5615C150.943 25.8538 151.758 26 152.697 26C153.589 26 154.389 25.9077 155.097 25.7231C155.82 25.5385 156.443 25.3077 156.966 25.0308C157.505 24.7538 157.92 24.4692 158.212 24.1769L160.935 28.5154C160.551 28.9308 160.005 29.3385 159.297 29.7385C158.605 30.1231 157.689 30.4385 156.551 30.6846C155.412 30.9308 153.974 31.0538 152.235 31.0538C150.143 31.0538 148.281 30.6615 146.651 29.8769C145.02 29.0923 143.735 27.9385 142.797 26.4154C141.858 24.8923 141.389 23.0308 141.389 20.8308C141.389 18.9846 141.789 17.3231 142.589 15.8462C143.405 14.3538 144.581 13.1769 146.12 12.3154C147.658 11.4385 149.512 11 151.681 11C153.743 11 155.528 11.3769 157.035 12.1308C158.558 12.8846 159.728 14.0077 160.543 15.5C161.374 16.9769 161.789 18.8231 161.789 21.0385C161.789 21.1615 161.781 21.4077 161.766 21.7769C161.766 22.1462 161.751 22.3923 161.72 22.5154H148.012ZM155.189 18.8462C155.174 18.3538 155.043 17.8692 154.797 17.3923C154.551 16.9 154.181 16.5 153.689 16.1923C153.197 15.8692 152.566 15.7077 151.797 15.7077C151.028 15.7077 150.374 15.8615 149.835 16.1692C149.312 16.4615 148.912 16.8462 148.635 17.3231C148.358 17.8 148.205 18.3077 148.174 18.8462H155.189ZM171.599 11C172.845 11 173.984 11.1077 175.014 11.3231C176.045 11.5231 176.907 11.7538 177.599 12.0154C178.307 12.2769 178.761 12.4923 178.961 12.6615L176.676 16.7923C176.384 16.5769 175.838 16.3 175.038 15.9615C174.253 15.6231 173.376 15.4538 172.407 15.4538C171.668 15.4538 171.045 15.5692 170.538 15.8C170.03 16.0154 169.776 16.3615 169.776 16.8385C169.776 17.3154 170.053 17.7 170.607 17.9923C171.176 18.2692 171.991 18.5154 173.053 18.7308C173.976 18.9154 174.914 19.2077 175.868 19.6077C176.822 20.0077 177.614 20.6 178.245 21.3846C178.891 22.1538 179.214 23.1846 179.214 24.4769C179.214 25.8 178.93 26.8923 178.361 27.7538C177.791 28.6154 177.038 29.2846 176.099 29.7615C175.161 30.2385 174.145 30.5692 173.053 30.7538C171.961 30.9538 170.899 31.0538 169.868 31.0538C168.422 31.0538 167.161 30.9231 166.084 30.6615C165.022 30.4 164.161 30.1 163.499 29.7615C162.838 29.4231 162.376 29.1538 162.114 28.9538L164.376 24.3385C164.776 24.6769 165.43 25.0615 166.338 25.4923C167.245 25.9077 168.207 26.1154 169.222 26.1154C170.207 26.1154 170.968 25.9692 171.507 25.6769C172.045 25.3846 172.314 25 172.314 24.5231C172.314 24.1385 172.184 23.8308 171.922 23.6C171.661 23.3692 171.291 23.1692 170.814 23C170.338 22.8308 169.761 22.6769 169.084 22.5385C168.468 22.4154 167.814 22.2231 167.122 21.9615C166.43 21.7 165.776 21.3462 165.161 20.9C164.545 20.4385 164.045 19.8615 163.661 19.1692C163.276 18.4769 163.084 17.6385 163.084 16.6538C163.084 15.3923 163.491 14.3462 164.307 13.5154C165.122 12.6846 166.176 12.0615 167.468 11.6462C168.761 11.2154 170.138 11 171.599 11Z" fill="#1C2326"/>
</svg>
